<?xml version="1.0" encoding="UTF-8" standalone="no"?>
<svg
   xmlns:dc="http://purl.org/dc/elements/1.1/"
   xmlns:cc="http://creativecommons.org/ns#"
   xmlns:rdf="http://www.w3.org/1999/02/22-rdf-syntax-ns#"
   xmlns:svg="http://www.w3.org/2000/svg"
   xmlns="http://www.w3.org/2000/svg"
   xmlns:sodipodi="http://sodipodi.sourceforge.net/DTD/sodipodi-0.dtd"
   xmlns:inkscape="http://www.inkscape.org/namespaces/inkscape"
   width="210mm"
   height="297mm"
   viewBox="0 0 210 297"
   version="1.1"
   id="svg8"
   inkscape:version="1.0.2 (e86c8708, 2021-01-15)"
   sodipodi:docname="left-logo.svg">
  <defs
     id="defs2" />
  <sodipodi:namedview
     id="base"
     pagecolor="#ffffff"
     bordercolor="#666666"
     borderopacity="1.0"
     inkscape:pageopacity="0.0"
     inkscape:pageshadow="2"
     inkscape:zoom="0.35"
     inkscape:cx="557.37535"
     inkscape:cy="560"
     inkscape:document-units="mm"
     inkscape:current-layer="layer1"
     inkscape:document-rotation="0"
     showgrid="false"
     inkscape:window-width="1252"
     inkscape:window-height="943"
     inkscape:window-x="176"
     inkscape:window-y="25"
     inkscape:window-maximized="0" />
  <metadata
     id="metadata5">
    <rdf:RDF>
      <cc:Work
         rdf:about="">
        <dc:format>image/svg+xml</dc:format>
        <dc:type
           rdf:resource="http://purl.org/dc/dcmitype/StillImage" />
        <dc:title></dc:title>
      </cc:Work>
    </rdf:RDF>
  </metadata>
  <g
     inkscape:label="Layer 1"
     inkscape:groupmode="layer"
     id="layer1">
    <g
       aria-label="Replace with Landscape Logo"
       transform="rotate(-15.166295)"
       id="text12"
       style="font-style:normal;font-weight:normal;font-size:10.5833px;line-height:1.25;font-family:sans-serif;fill:#000000;fill-opacity:1;stroke:none;stroke-width:0.264583">
      <path
         id="path60"
         style="stroke-width:0.264583"
         sodipodi:type="inkscape:offset"
         inkscape:radius="0"
         inkscape:original="M 15.888672 146.35352 L 15.888672 154.39453 L 16.859375 154.39453 L 16.859375 146.35352 L 15.888672 146.35352 z M 56.455078 146.35352 L 56.455078 154.39453 L 57.425781 154.39453 L 57.425781 150.08398 C 57.691053 149.88072 57.968425 149.7149 58.257812 149.58398 C 58.547199 149.45307 58.824572 149.38672 59.089844 149.38672 C 59.348225 149.38672 59.558784 149.42375 59.720703 149.49609 C 59.882622 149.565 60.00567 149.67171 60.091797 149.81641 C 60.174478 149.94732 60.232665 150.12902 60.263672 150.36328 C 60.294679 150.5941 60.308594 150.84215 60.308594 151.10742 L 60.308594 154.39453 L 61.28125 154.39453 L 61.28125 150.64844 C 61.28125 149.9422 61.116345 149.4009 60.789062 149.02539 C 60.461779 148.64988 59.986841 148.46289 59.363281 148.46289 C 59.022218 148.46289 58.691026 148.53258 58.367188 148.67383 C 58.043349 148.81507 57.728949 149.01218 57.425781 149.26367 L 57.425781 146.35352 L 56.455078 146.35352 z M 89.537109 146.35352 L 89.537109 148.85547 C 89.278728 148.7211 89.033093 148.62255 88.798828 148.56055 C 88.564562 148.49508 88.295355 148.46289 87.992188 148.46289 C 87.658014 148.46289 87.334987 148.53017 87.021484 148.66797 C 86.711427 148.80578 86.439344 149.00575 86.205078 149.26758 C 85.967367 149.53629 85.777967 149.86173 85.636719 150.24414 C 85.498915 150.62655 85.429688 151.06353 85.429688 151.55273 C 85.429688 152.49324 85.630128 153.22923 86.033203 153.75977 C 86.439723 154.29031 86.988717 154.55469 87.677734 154.55469 C 88.032578 154.55469 88.360895 154.48788 88.664062 154.35352 C 88.96723 154.21916 89.258057 154.03022 89.537109 153.78906 L 89.537109 154.39453 L 90.509766 154.39453 L 90.509766 146.35352 L 89.537109 146.35352 z M 49.3125 146.64844 L 49.3125 147.65625 L 50.408203 147.65625 L 50.408203 146.64844 L 49.3125 146.64844 z M -4.3007812 146.69922 L -4.3007812 154.39453 L -3.2773438 154.39453 L -3.2773438 151.33594 L -1.8359375 151.33594 L 0.73632812 154.39453 L 2.0644531 154.39453 L -0.828125 151.03125 C -0.33892299 150.84177 0.04516691 150.55957 0.32421875 150.1875 C 0.6032706 149.81199 0.7421875 149.34762 0.7421875 148.79297 C 0.7421875 148.383 0.66238014 148.04457 0.50390625 147.7793 C 0.34887745 147.51058 0.13256747 147.28898 -0.14648438 147.11328 C -0.39453046 146.95828 -0.67431739 146.85157 -0.984375 146.79297 C -1.2944326 146.73097 -1.681398 146.69922 -2.1464844 146.69922 L -4.3007812 146.69922 z M 66.949219 146.69922 L 66.949219 154.39453 L 71.818359 154.39453 L 71.818359 153.48438 L 67.972656 153.48438 L 67.972656 146.69922 L 66.949219 146.69922 z M 126.52148 146.69922 L 126.52148 154.39453 L 131.39062 154.39453 L 131.39062 153.48438 L 127.54492 153.48438 L 127.54492 146.69922 L 126.52148 146.69922 z M 52.298828 146.96289 L 52.298828 148.62305 L 51.642578 148.62305 L 51.642578 149.43945 L 52.298828 149.43945 L 52.298828 152.50781 C 52.298828 153.20717 52.453153 153.71626 52.759766 154.0332 C 53.066378 154.35015 53.514406 154.50781 54.103516 154.50781 C 54.272325 154.50781 54.462186 154.49194 54.675781 154.46094 C 54.892822 154.4299 55.092801 154.39195 55.275391 154.34375 L 55.275391 153.46875 L 55.224609 153.46875 C 55.148818 153.49978 55.023817 153.53969 54.851562 153.58789 C 54.679308 153.63269 54.513943 153.65625 54.355469 153.65625 C 54.083307 153.65625 53.880452 153.6245 53.746094 153.5625 C 53.61518 153.49705 53.511338 153.39562 53.435547 153.25781 C 53.352864 153.10968 53.304796 152.95202 53.291016 152.7832 C 53.277236 152.61095 53.271484 152.37153 53.271484 152.06836 L 53.271484 149.43945 L 55.275391 149.43945 L 55.275391 148.62305 L 53.271484 148.62305 L 53.271484 146.96289 L 52.298828 146.96289 z M -3.2773438 147.57812 L -2.0742188 147.57812 C -1.798612 147.57812 -1.5587287 147.59929 -1.3554688 147.64062 C -1.1522088 147.67853 -0.9762636 147.74775 -0.828125 147.84766 C -0.6489806 147.96479 -0.52305748 148.109 -0.44726562 148.28125 C -0.36802868 148.45006 -0.328125 148.64475 -0.328125 148.86523 C -0.328125 149.15462 -0.36561439 149.3945 -0.44140625 149.58398 C -0.51375302 149.77002 -0.62817432 149.93538 -0.78320312 150.08008 C -0.95201229 150.23508 -1.1553285 150.34179 -1.3964844 150.40039 C -1.6376403 150.45552 -1.9203027 150.48242 -2.2441406 150.48242 L -3.2773438 150.48242 L -3.2773438 147.57812 z M 5.3769531 148.46289 C 4.5363525 148.46289 3.8585596 148.74026 3.3417969 149.29492 C 2.8284793 149.84958 2.5722656 150.59902 2.5722656 151.54297 C 2.5722656 152.49726 2.8395199 153.2337 3.3769531 153.75391 C 3.9143863 154.27067 4.6633603 154.5293 5.6210938 154.5293 C 5.996608 154.5293 6.3542492 154.48169 6.6953125 154.38867 C 7.0363759 154.29565 7.3699826 154.18078 7.6972656 154.04297 L 7.6972656 152.98438 L 7.6464844 152.98438 C 7.4776752 153.13596 7.1925986 153.29075 6.7929688 153.44922 C 6.396784 153.60425 6.0021146 153.68164 5.609375 153.68164 C 5.3130977 153.68164 5.0410148 153.63932 4.7929688 153.55664 C 4.5483677 153.47395 4.3373475 153.35091 4.1582031 153.18555 C 3.9721685 153.01673 3.8255476 152.80089 3.71875 152.53906 C 3.6119524 152.2738 3.5585938 151.96422 3.5585938 151.60938 L 7.8125 151.60938 L 7.8125 151.08203 C 7.8125 150.24488 7.5995267 149.59928 7.1757812 149.14453 C 6.7554809 148.68978 6.1555422 148.46289 5.3769531 148.46289 z M 12.158203 148.46289 C 11.793024 148.46289 11.446885 148.53545 11.123047 148.68359 C 10.802654 148.82829 10.514241 149.00952 10.255859 149.22656 L 10.255859 148.62305 L 9.2851562 148.62305 L 9.2851562 156.52344 L 10.255859 156.52344 L 10.255859 154.10547 C 10.507351 154.24326 10.752985 154.34469 10.994141 154.41016 C 11.238741 154.47562 11.510824 154.50781 11.810547 154.50781 C 12.155056 154.50781 12.480497 154.43858 12.787109 154.30078 C 13.097167 154.15953 13.366375 153.96196 13.59375 153.70703 C 13.838351 153.43831 14.027751 153.11046 14.162109 152.72461 C 14.296468 152.33532 14.363281 151.90799 14.363281 151.43945 C 14.363281 150.50583 14.168592 149.77561 13.779297 149.25195 C 13.393448 148.72486 12.85411 148.46289 12.158203 148.46289 z M 33.076172 148.46289 C 32.235571 148.46289 31.555825 148.74026 31.039062 149.29492 C 30.525744 149.84958 30.269531 150.59902 30.269531 151.54297 C 30.269531 152.49726 30.538739 153.2337 31.076172 153.75391 C 31.613605 154.27067 32.360626 154.5293 33.318359 154.5293 C 33.693874 154.5293 34.053468 154.48169 34.394531 154.38867 C 34.735595 154.29565 35.069202 154.18078 35.396484 154.04297 L 35.396484 152.98438 L 35.34375 152.98438 C 35.174941 153.13596 34.891818 153.29075 34.492188 153.44922 C 34.096003 153.60425 33.701333 153.68164 33.308594 153.68164 C 33.012316 153.68164 32.740234 153.63932 32.492188 153.55664 C 32.247586 153.47395 32.036566 153.35091 31.857422 153.18555 C 31.671387 153.01673 31.524766 152.80089 31.417969 152.53906 C 31.311171 152.2738 31.257813 151.96422 31.257812 151.60938 L 35.509766 151.60938 L 35.509766 151.08203 C 35.509766 150.24488 35.298745 149.59928 34.875 149.14453 C 34.454699 148.68978 33.854761 148.46289 33.076172 148.46289 z M 82.039062 148.46289 C 81.697999 148.46289 81.364854 148.53258 81.041016 148.67383 C 80.717178 148.81507 80.40473 149.01218 80.101562 149.26367 L 80.101562 148.62305 L 79.130859 148.62305 L 79.130859 154.39453 L 80.101562 154.39453 L 80.101562 150.08398 C 80.366835 149.88072 80.644207 149.7149 80.933594 149.58398 C 81.222981 149.45307 81.500354 149.38672 81.765625 149.38672 C 82.024006 149.38672 82.234565 149.42375 82.396484 149.49609 C 82.558403 149.565 82.681451 149.67171 82.767578 149.81641 C 82.850259 149.94732 82.908446 150.12902 82.939453 150.36328 C 82.97046 150.5941 82.984375 150.84215 82.984375 151.10742 L 82.984375 154.39453 L 83.957031 154.39453 L 83.957031 150.64844 C 83.957031 149.9422 83.792127 149.4009 83.464844 149.02539 C 83.137561 148.64988 82.662623 148.46289 82.039062 148.46289 z M 112.69922 148.46289 C 112.33404 148.46289 111.98986 148.53545 111.66602 148.68359 C 111.34562 148.82829 111.05525 149.00952 110.79688 149.22656 L 110.79688 148.62305 L 109.82617 148.62305 L 109.82617 156.52344 L 110.79688 156.52344 L 110.79688 154.10547 C 111.04837 154.24326 111.294 154.34469 111.53516 154.41016 C 111.77976 154.47562 112.0538 154.50781 112.35352 154.50781 C 112.69803 154.50781 113.02346 154.43858 113.33008 154.30078 C 113.64013 154.15953 113.90739 153.96196 114.13477 153.70703 C 114.37937 153.43831 114.56877 153.11046 114.70312 152.72461 C 114.83749 152.33532 114.90625 151.90799 114.90625 151.43945 C 114.90625 150.50583 114.71156 149.77561 114.32227 149.25195 C 113.93642 148.72486 113.39513 148.46289 112.69922 148.46289 z M 118.81641 148.46289 C 117.97581 148.46289 117.29801 148.74026 116.78125 149.29492 C 116.26793 149.84958 116.01172 150.59902 116.01172 151.54297 C 116.01172 152.49726 116.28093 153.2337 116.81836 153.75391 C 117.35579 154.27067 118.10281 154.5293 119.06055 154.5293 C 119.43606 154.5293 119.7937 154.48169 120.13477 154.38867 C 120.47583 154.29565 120.80943 154.18078 121.13672 154.04297 L 121.13672 152.98438 L 121.08594 152.98438 C 120.91713 153.13596 120.63206 153.29075 120.23242 153.44922 C 119.83624 153.60425 119.44352 153.68164 119.05078 153.68164 C 118.75451 153.68164 118.48047 153.63932 118.23242 153.55664 C 117.98782 153.47395 117.7768 153.35091 117.59766 153.18555 C 117.41162 153.01673 117.265 152.80089 117.1582 152.53906 C 117.05141 152.2738 116.99805 151.96422 116.99805 151.60938 L 121.25195 151.60938 L 121.25195 151.08203 C 121.25195 150.24488 121.03897 149.59928 120.61523 149.14453 C 120.19493 148.68978 119.59499 148.46289 118.81641 148.46289 z M 134.59375 148.46289 C 133.77727 148.46289 133.1288 148.73544 132.64648 149.2832 C 132.16762 149.82752 131.92773 150.57121 131.92773 151.51172 C 131.92773 152.45223 132.16762 153.19396 132.64648 153.73828 C 133.1288 154.28261 133.77727 154.55469 134.59375 154.55469 C 135.40335 154.55469 136.04894 154.28261 136.53125 153.73828 C 137.01356 153.19396 137.25586 152.45223 137.25586 151.51172 C 137.25586 150.57121 137.01356 149.82752 136.53125 149.2832 C 136.04894 148.73544 135.40335 148.46289 134.59375 148.46289 z M 140.91992 148.46289 C 140.60298 148.46289 140.28328 148.53017 139.96289 148.66797 C 139.6425 148.80233 139.37042 148.99368 139.14648 149.23828 C 138.90533 149.50011 138.71351 149.81014 138.57227 150.17188 C 138.43446 150.53016 138.36719 150.95898 138.36719 151.45508 C 138.36719 152.36114 138.56763 153.06297 138.9707 153.5625 C 139.37722 154.05859 139.92621 154.30664 140.61523 154.30664 C 141.02864 154.30664 141.36754 154.25041 141.63281 154.13672 C 141.90153 154.01959 142.18178 153.84364 142.47461 153.60938 L 142.47461 154.13672 C 142.47461 154.37099 142.44815 154.582 142.39648 154.77148 C 142.34481 154.96096 142.25925 155.12345 142.13867 155.25781 C 142.01809 155.39906 141.84985 155.50866 141.63281 155.58789 C 141.41577 155.66713 141.14127 155.70703 140.81055 155.70703 C 140.46604 155.70703 140.12186 155.66138 139.77734 155.56836 C 139.43284 155.47878 139.18191 155.40184 139.02344 155.33984 L 138.9707 155.33984 L 138.9707 156.33203 C 139.2532 156.41128 139.53874 156.47234 139.82812 156.51367 C 140.12096 156.55847 140.4219 156.58008 140.72852 156.58008 C 141.6518 156.58008 142.33488 156.35078 142.7793 155.89258 C 143.22372 155.43438 143.44531 154.71669 143.44531 153.73828 L 143.44531 148.62305 L 142.53711 148.62305 L 142.47461 148.87109 C 142.22312 148.7333 141.98324 148.63187 141.75586 148.56641 C 141.53193 148.49751 141.2541 148.46289 140.91992 148.46289 z M 147.61719 148.46289 C 146.8007 148.46289 146.15028 148.73544 145.66797 149.2832 C 145.1891 149.82752 144.94922 150.57121 144.94922 151.51172 C 144.94922 152.45223 145.1891 153.19396 145.66797 153.73828 C 146.15028 154.28261 146.8007 154.55469 147.61719 154.55469 C 148.42678 154.55469 149.07237 154.28261 149.55469 153.73828 C 150.037 153.19396 150.27734 152.45223 150.27734 151.51172 C 150.27734 150.57121 150.037 149.82752 149.55469 149.2832 C 149.07237 148.73544 148.42678 148.46289 147.61719 148.46289 z M 20.767578 148.48242 C 20.419625 148.48242 20.06532 148.51417 19.707031 148.57617 C 19.348743 148.63819 19.076199 148.69443 18.886719 148.74609 L 18.886719 149.73438 L 18.9375 149.73438 C 19.271673 149.60692 19.5947 149.50883 19.908203 149.44336 C 20.221706 149.37445 20.506782 149.33984 20.761719 149.33984 C 20.971869 149.33984 21.17231 149.35528 21.365234 149.38281 C 21.558159 149.41038 21.723525 149.46374 21.861328 149.54297 C 22.006022 149.62565 22.117568 149.73812 22.193359 149.88281 C 22.272597 150.02751 22.3125 150.21115 22.3125 150.43164 L 22.3125 150.58008 C 21.747506 150.60763 21.217257 150.64994 20.724609 150.70508 C 20.231963 150.7602 19.810383 150.8645 19.458984 151.01953 C 19.11103 151.17456 18.841823 151.388 18.652344 151.66016 C 18.466309 151.92887 18.375 152.28318 18.375 152.7207 C 18.375 153.25469 18.554282 153.6926 18.916016 154.03711 C 19.27775 154.38162 19.720027 154.55469 20.240234 154.55469 C 20.522732 154.55469 20.768366 154.52779 20.978516 154.47266 C 21.188666 154.42098 21.37519 154.35462 21.537109 154.27539 C 21.674913 154.21338 21.816244 154.1307 21.960938 154.02734 C 22.109076 153.92052 22.226373 153.83783 22.3125 153.7793 L 22.3125 154.39453 L 23.277344 154.39453 L 23.277344 150.47852 C 23.277344 150.10645 23.22111 149.79446 23.107422 149.54297 C 22.993735 149.29148 22.828369 149.08621 22.611328 148.92773 C 22.390843 148.76583 22.129339 148.6514 21.826172 148.58594 C 21.526449 148.51704 21.174098 148.48242 20.767578 148.48242 z M 74.738281 148.48242 C 74.390328 148.48242 74.036024 148.51417 73.677734 148.57617 C 73.319446 148.63819 73.044948 148.69443 72.855469 148.74609 L 72.855469 149.73438 L 72.908203 149.73438 C 73.242376 149.60692 73.565404 149.50883 73.878906 149.44336 C 74.192409 149.37445 74.477486 149.33984 74.732422 149.33984 C 74.942572 149.33984 75.143012 149.35528 75.335938 149.38281 C 75.528862 149.41038 75.694228 149.46374 75.832031 149.54297 C 75.976725 149.62565 76.08827 149.73812 76.164062 149.88281 C 76.243299 150.02751 76.283203 150.21115 76.283203 150.43164 L 76.283203 150.58008 C 75.718209 150.60763 75.187959 150.64994 74.695312 150.70508 C 74.202665 150.7602 73.781086 150.8645 73.429688 151.01953 C 73.081734 151.17456 72.812527 151.388 72.623047 151.66016 C 72.437013 151.92887 72.345703 152.28318 72.345703 152.7207 C 72.345703 153.25469 72.524985 153.6926 72.886719 154.03711 C 73.248453 154.38162 73.69073 154.55469 74.210938 154.55469 C 74.493434 154.55469 74.739068 154.52779 74.949219 154.47266 C 75.159369 154.42098 75.345894 154.35462 75.507812 154.27539 C 75.645616 154.21338 75.786947 154.1307 75.931641 154.02734 C 76.079779 153.92052 76.197076 153.83783 76.283203 153.7793 L 76.283203 154.39453 L 77.248047 154.39453 L 77.248047 150.47852 C 77.248047 150.10645 77.191812 149.79446 77.078125 149.54297 C 76.964437 149.29148 76.799071 149.08621 76.582031 148.92773 C 76.361545 148.76583 76.100042 148.6514 75.796875 148.58594 C 75.497153 148.51704 75.144801 148.48242 74.738281 148.48242 z M 94.390625 148.48242 C 94.022001 148.48242 93.686441 148.53049 93.386719 148.62695 C 93.090442 148.71997 92.847222 148.84785 92.654297 149.00977 C 92.454482 149.17513 92.303032 149.36211 92.203125 149.57227 C 92.106662 149.78241 92.058594 150.00643 92.058594 150.24414 C 92.058594 150.6231 92.164849 150.9452 92.375 151.20703 C 92.588595 151.46541 92.94865 151.66056 93.455078 151.79492 C 93.637667 151.84316 93.838108 151.88835 94.058594 151.92969 C 94.282524 151.97103 94.463759 152.00806 94.601562 152.03906 C 94.973631 152.12175 95.224555 152.22076 95.355469 152.33789 C 95.486382 152.45502 95.552734 152.6281 95.552734 152.85547 C 95.552734 153.15175 95.432562 153.36806 95.191406 153.50586 C 94.95025 153.64367 94.61469 153.71289 94.1875 153.71289 C 93.842991 153.71289 93.482936 153.64608 93.107422 153.51172 C 92.731907 153.37391 92.39255 153.1898 92.085938 152.95898 L 92.033203 152.95898 L 92.033203 154.04883 C 92.274359 154.16941 92.57289 154.28141 92.927734 154.38477 C 93.286023 154.48467 93.678278 154.5332 94.105469 154.5332 C 94.859942 154.5332 95.454591 154.36496 95.888672 154.02734 C 96.326197 153.68972 96.544922 153.25756 96.544922 152.73047 C 96.544922 152.31017 96.422335 151.97369 96.177734 151.71875 C 95.933133 151.46726 95.586072 151.2889 95.134766 151.18555 C 94.986627 151.15109 94.800102 151.1136 94.576172 151.07227 C 94.355686 151.03092 94.155706 150.9886 93.976562 150.94727 C 93.652724 150.87147 93.418131 150.77292 93.273438 150.65234 C 93.125299 150.53176 93.050781 150.35294 93.050781 150.11523 C 93.050781 149.84651 93.173368 149.64607 93.417969 149.51172 C 93.66257 149.37391 93.963516 149.30469 94.318359 149.30469 C 94.659423 149.30469 95.006484 149.36863 95.361328 149.49609 C 95.716171 149.62012 96.017578 149.77249 96.265625 149.95508 L 96.318359 149.95508 L 96.318359 148.91602 C 96.084093 148.79544 95.788437 148.69401 95.433594 148.61133 C 95.082195 148.5252 94.735134 148.48242 94.390625 148.48242 z M 105.43359 148.48242 C 105.08564 148.48242 104.73133 148.51417 104.37305 148.57617 C 104.01476 148.63819 103.74221 148.69443 103.55273 148.74609 L 103.55273 149.73438 L 103.60352 149.73438 C 103.93769 149.60692 104.26267 149.50883 104.57617 149.44336 C 104.88967 149.37445 105.1728 149.33984 105.42773 149.33984 C 105.63789 149.33984 105.84028 149.35528 106.0332 149.38281 C 106.22612 149.41038 106.39149 149.46374 106.5293 149.54297 C 106.67399 149.62565 106.78358 149.73812 106.85938 149.88281 C 106.93861 150.02751 106.97852 150.21115 106.97852 150.43164 L 106.97852 150.58008 C 106.41352 150.60763 105.88522 150.64994 105.39258 150.70508 C 104.89993 150.7602 104.4764 150.8645 104.125 151.01953 C 103.77705 151.17456 103.50979 151.388 103.32031 151.66016 C 103.13428 151.92887 103.04102 152.28318 103.04102 152.7207 C 103.04102 153.25469 103.22225 153.6926 103.58398 154.03711 C 103.94572 154.38162 104.38604 154.55469 104.90625 154.55469 C 105.18875 154.55469 105.43438 154.52779 105.64453 154.47266 C 105.85468 154.42098 106.04121 154.35462 106.20312 154.27539 C 106.34093 154.21338 106.48226 154.1307 106.62695 154.02734 C 106.77509 153.92052 106.89239 153.83783 106.97852 153.7793 L 106.97852 154.39453 L 107.94531 154.39453 L 107.94531 150.47852 C 107.94531 150.10645 107.88712 149.79446 107.77344 149.54297 C 107.65975 149.29148 107.49438 149.08621 107.27734 148.92773 C 107.05686 148.76583 106.79535 148.6514 106.49219 148.58594 C 106.19246 148.51704 105.84011 148.48242 105.43359 148.48242 z M 27.578125 148.48828 C 26.72719 148.48828 26.041692 148.75749 25.521484 149.29492 C 25.004722 149.83235 24.746094 150.57167 24.746094 151.51562 C 24.746094 152.02206 24.815322 152.4648 24.953125 152.84375 C 25.090928 153.22271 25.285618 153.53711 25.537109 153.78516 C 25.785155 154.0332 26.081734 154.21972 26.429688 154.34375 C 26.777641 154.46432 27.16127 154.52344 27.578125 154.52344 C 27.905408 154.52344 28.212566 154.48066 28.501953 154.39453 C 28.794785 154.3084 29.103896 154.18823 29.427734 154.0332 L 29.427734 152.96289 L 29.376953 152.96289 C 29.304606 153.02146 29.206054 153.0931 29.082031 153.17578 C 28.958008 153.25502 28.824842 153.33 28.683594 153.40234 C 28.521675 153.48504 28.339979 153.55185 28.136719 153.60352 C 27.933459 153.65518 27.733479 153.68164 27.537109 153.68164 C 26.972116 153.68164 26.532253 153.49511 26.21875 153.12305 C 25.908693 152.74753 25.753906 152.21154 25.753906 151.51562 C 25.753906 150.79905 25.911568 150.2573 26.228516 149.88867 C 26.548908 149.51661 26.985896 149.33008 27.537109 149.33008 C 27.836832 149.33008 28.143529 149.3916 28.457031 149.51562 C 28.773979 149.63965 29.080676 149.81801 29.376953 150.04883 L 29.427734 150.04883 L 29.427734 148.96875 C 29.162462 148.8344 28.869221 148.71997 28.548828 148.62695 C 28.231881 148.53394 27.908854 148.48828 27.578125 148.48828 z M 100.35938 148.48828 C 99.50844 148.48828 98.822942 148.75749 98.302734 149.29492 C 97.785972 149.83235 97.527344 150.57167 97.527344 151.51562 C 97.527344 152.02206 97.594619 152.4648 97.732422 152.84375 C 97.870225 153.22271 98.064915 153.53711 98.316406 153.78516 C 98.564452 154.0332 98.862984 154.21972 99.210938 154.34375 C 99.558892 154.46432 99.94252 154.52344 100.35938 154.52344 C 100.68666 154.52344 100.99382 154.48066 101.2832 154.39453 C 101.57603 154.3084 101.88514 154.18823 102.20898 154.0332 L 102.20898 152.96289 L 102.15625 152.96289 C 102.0839 153.02146 101.9873 153.0931 101.86328 153.17578 C 101.73926 153.25502 101.6061 153.33 101.46484 153.40234 C 101.30292 153.48504 101.11928 153.55185 100.91602 153.60352 C 100.71276 153.65518 100.51277 153.68164 100.31641 153.68164 C 99.751412 153.68164 99.313503 153.49511 99 153.12305 C 98.689942 152.74753 98.535156 152.21154 98.535156 151.51562 C 98.535156 150.79905 98.692818 150.2573 99.009766 149.88867 C 99.330158 149.51661 99.765192 149.33008 100.31641 149.33008 C 100.61613 149.33008 100.92282 149.3916 101.23633 149.51562 C 101.55327 149.63965 101.85998 149.81801 102.15625 150.04883 L 102.20898 150.04883 L 102.20898 148.96875 C 101.94371 148.8344 101.65047 148.71997 101.33008 148.62695 C 101.01313 148.53394 100.6901 148.48828 100.35938 148.48828 z M 40.191406 148.62305 L 41.710938 154.39453 L 42.605469 154.39453 L 44.078125 149.94531 L 45.560547 154.39453 L 46.460938 154.39453 L 47.964844 148.62305 L 46.986328 148.62305 L 45.984375 153.0918 L 44.507812 148.62305 L 43.705078 148.62305 L 42.263672 153.0918 L 41.205078 148.62305 L 40.191406 148.62305 z M 49.375 148.62305 L 49.375 154.39453 L 50.345703 154.39453 L 50.345703 148.62305 L 49.375 148.62305 z M 5.3261719 149.26367 C 5.8429345 149.26367 6.2270244 149.40259 6.4785156 149.68164 C 6.7334503 149.96069 6.8617877 150.35536 6.8652344 150.86523 L 3.5585938 150.86523 C 3.5999347 150.41049 3.7734656 150.02927 4.0800781 149.72266 C 4.3901357 149.41604 4.8059641 149.26367 5.3261719 149.26367 z M 33.023438 149.26367 C 33.5402 149.26367 33.92429 149.40259 34.175781 149.68164 C 34.430696 149.96069 34.560986 150.35536 34.564453 150.86523 L 31.257812 150.86523 C 31.299154 150.41049 31.472685 150.02927 31.779297 149.72266 C 32.089355 149.41604 32.50323 149.26367 33.023438 149.26367 z M 118.76562 149.26367 C 119.28239 149.26367 119.66648 149.40259 119.91797 149.68164 C 120.17302 149.96069 120.30135 150.35536 120.30469 150.86523 L 116.99805 150.86523 C 117.03939 150.41049 117.21292 150.02927 117.51953 149.72266 C 117.82958 149.41604 118.24542 149.26367 118.76562 149.26367 z M 134.59375 149.29883 C 135.11396 149.29883 135.52162 149.48248 135.81445 149.84766 C 136.10729 150.20939 136.25195 150.76413 136.25195 151.51172 C 136.25195 152.24207 136.10487 152.79199 135.80859 153.16406 C 135.51576 153.53268 135.11052 153.7168 134.59375 153.7168 C 134.0701 153.7168 133.66197 153.53222 133.36914 153.16016 C 133.07631 152.78464 132.92969 152.23519 132.92969 151.51172 C 132.92969 150.76413 133.07389 150.20939 133.36328 149.84766 C 133.65611 149.48248 134.06666 149.29883 134.59375 149.29883 z M 147.61719 149.29883 C 148.13739 149.29883 148.5431 149.48248 148.83594 149.84766 C 149.12877 150.20939 149.27539 150.76413 149.27539 151.51172 C 149.27539 152.24207 149.12636 152.79199 148.83008 153.16406 C 148.53724 153.53268 148.13395 153.7168 147.61719 153.7168 C 147.09353 153.7168 146.68541 153.53222 146.39258 153.16016 C 146.09974 152.78464 145.95312 152.23519 145.95312 151.51172 C 145.95312 150.76413 146.09733 150.20939 146.38672 149.84766 C 146.67955 149.48248 147.09009 149.29883 147.61719 149.29883 z M 141.08984 149.33594 C 141.31033 149.33594 141.53147 149.36044 141.75195 149.41211 C 141.97588 149.46034 142.21623 149.54302 142.47461 149.66016 L 142.47461 152.80859 C 142.2369 152.99119 141.9754 153.13781 141.68945 153.24805 C 141.40696 153.35485 141.1243 153.4082 140.8418 153.4082 C 140.3147 153.4082 139.93832 153.24042 139.71094 152.90625 C 139.48356 152.57208 139.36914 152.08127 139.36914 151.43359 C 139.36914 150.75147 139.52151 150.23133 139.82812 149.87305 C 140.13474 149.51476 140.55586 149.33594 141.08984 149.33594 z M 88.158203 149.35156 C 88.402804 149.35156 88.627279 149.37317 88.833984 149.41797 C 89.04069 149.46276 89.275283 149.54302 89.537109 149.66016 L 89.537109 152.97266 C 89.292509 153.16558 89.028591 153.32519 88.746094 153.44922 C 88.463597 153.56979 88.185763 153.62891 87.910156 153.62891 C 87.393394 153.62891 87.017469 153.4525 86.783203 153.09766 C 86.548938 152.73937 86.431641 152.21682 86.431641 151.53125 C 86.431641 150.83534 86.583551 150.29888 86.886719 149.91992 C 87.189886 149.54096 87.61388 149.35156 88.158203 149.35156 z M 11.910156 149.38672 C 12.402804 149.38672 12.768149 149.55978 13.005859 149.9043 C 13.24357 150.2488 13.361328 150.76894 13.361328 151.46484 C 13.361328 152.18142 13.209417 152.72271 12.90625 153.08789 C 12.603083 153.45307 12.181504 153.63477 11.640625 153.63477 C 11.389134 153.63477 11.162706 153.61316 10.962891 153.56836 C 10.766521 153.52357 10.531466 153.43847 10.255859 153.31445 L 10.255859 150.04297 C 10.514241 149.8466 10.783909 149.68894 11.066406 149.56836 C 11.348903 149.44778 11.631104 149.38672 11.910156 149.38672 z M 112.45117 149.38672 C 112.94382 149.38672 113.30916 149.55978 113.54688 149.9043 C 113.78458 150.2488 113.90234 150.76894 113.90234 151.46484 C 113.90234 152.18142 113.75043 152.72271 113.44727 153.08789 C 113.1441 153.45307 112.72252 153.63477 112.18164 153.63477 C 111.93015 153.63477 111.70568 153.61316 111.50586 153.56836 C 111.30949 153.52357 111.07248 153.43847 110.79688 153.31445 L 110.79688 150.04297 C 111.05525 149.8466 111.32688 149.68894 111.60938 149.56836 C 111.89187 149.44778 112.17212 149.38672 112.45117 149.38672 z M 22.3125 151.36719 L 22.3125 152.97266 C 22.071344 153.15869 21.809841 153.31877 21.527344 153.45312 C 21.244847 153.58404 20.93286 153.65039 20.591797 153.65039 C 20.181832 153.65039 19.875596 153.5677 19.675781 153.40234 C 19.475967 153.23353 19.376953 152.98307 19.376953 152.65234 C 19.376953 152.35951 19.462512 152.1302 19.634766 151.96484 C 19.80702 151.79603 20.033448 151.67298 20.3125 151.59375 C 20.546766 151.52831 20.864043 151.47783 21.263672 151.44336 C 21.666747 151.40889 22.016223 151.38439 22.3125 151.36719 z M 76.283203 151.36719 L 76.283203 152.97266 C 76.042047 153.15869 75.780544 153.31877 75.498047 153.45312 C 75.21555 153.58404 74.903563 153.65039 74.5625 153.65039 C 74.152535 153.65039 73.846299 153.5677 73.646484 153.40234 C 73.446669 153.23353 73.347656 152.98307 73.347656 152.65234 C 73.347656 152.35951 73.433214 152.1302 73.605469 151.96484 C 73.777723 151.79603 74.004151 151.67298 74.283203 151.59375 C 74.517468 151.52831 74.834745 151.47783 75.234375 151.44336 C 75.63745 151.40889 75.986926 151.38439 76.283203 151.36719 z M 106.97852 151.36719 L 106.97852 152.97266 C 106.73736 153.15869 106.47586 153.31877 106.19336 153.45312 C 105.91087 153.58404 105.59888 153.65039 105.25781 153.65039 C 104.84785 153.65039 104.54357 153.5677 104.34375 153.40234 C 104.14394 153.23353 104.04297 152.98307 104.04297 152.65234 C 104.04297 152.35951 104.12853 152.1302 104.30078 151.96484 C 104.47303 151.79603 104.69946 151.67298 104.97852 151.59375 C 105.21278 151.52831 105.53006 151.47783 105.92969 151.44336 C 106.33277 151.40889 106.68224 151.38439 106.97852 151.36719 z "
         d="m 15.888672,146.35352 v 8.04101 h 0.970703 v -8.04101 z m 40.566406,0 v 8.04101 h 0.970703 v -4.31055 c 0.265272,-0.20326 0.542644,-0.36908 0.832031,-0.5 0.289387,-0.13091 0.56676,-0.19726 0.832032,-0.19726 0.258381,0 0.46894,0.037 0.630859,0.10937 0.161919,0.0689 0.284967,0.17562 0.371094,0.32032 0.08268,0.13091 0.140868,0.31261 0.171875,0.54687 0.03101,0.23082 0.04492,0.47887 0.04492,0.74414 v 3.28711 h 0.972656 v -3.74609 c 0,-0.70624 -0.164905,-1.24754 -0.492188,-1.62305 -0.327283,-0.37551 -0.802221,-0.5625 -1.425781,-0.5625 -0.341063,0 -0.672255,0.0697 -0.996093,0.21094 -0.323839,0.14124 -0.638239,0.33835 -0.941407,0.58984 v -2.91015 z m 33.082031,0 v 2.50195 c -0.258381,-0.13437 -0.504016,-0.23292 -0.738281,-0.29492 -0.234266,-0.0655 -0.503473,-0.0977 -0.80664,-0.0977 -0.334174,0 -0.657201,0.0673 -0.970704,0.20508 -0.310057,0.13781 -0.58214,0.33778 -0.816406,0.59961 -0.237711,0.26871 -0.427111,0.59415 -0.568359,0.97656 -0.137804,0.38241 -0.207031,0.81939 -0.207031,1.30859 0,0.94051 0.20044,1.6765 0.603515,2.20704 0.40652,0.53054 0.955514,0.79492 1.644531,0.79492 0.354844,0 0.683161,-0.0668 0.986328,-0.20117 0.303168,-0.13436 0.593995,-0.3233 0.873047,-0.56446 v 0.60547 h 0.972657 v -8.04101 z M 49.3125,146.64844 v 1.00781 h 1.095703 v -1.00781 z m -53.6132812,0.0508 v 7.69531 h 1.0234374 v -3.05859 h 1.4414063 l 2.57226562,3.05859 H 2.0644531 l -2.8925781,-3.36328 c 0.48920201,-0.18948 0.87329191,-0.47168 1.15234375,-0.84375 0.27905185,-0.37551 0.41796875,-0.83988 0.41796875,-1.39453 0,-0.40997 -0.0798074,-0.7484 -0.23828125,-1.01367 -0.1550288,-0.26872 -0.37133878,-0.49032 -0.65039063,-0.66602 -0.24804608,-0.155 -0.52783301,-0.26171 -0.83789062,-0.32031 -0.3100576,-0.062 -0.697023,-0.0937 -1.1621094,-0.0937 z m 71.2500002,0 v 7.69531 h 4.86914 v -0.91015 h -3.845703 v -6.78516 z m 59.572261,0 v 7.69531 h 4.86914 v -0.91015 h -3.8457 v -6.78516 z m -74.222652,0.26367 v 1.66016 h -0.65625 v 0.8164 h 0.65625 v 3.06836 c 0,0.69936 0.154325,1.20845 0.460938,1.52539 0.306612,0.31695 0.75464,0.47461 1.34375,0.47461 0.168809,0 0.35867,-0.0159 0.572265,-0.0469 0.217041,-0.031 0.41702,-0.069 0.59961,-0.11719 v -0.875 h -0.05078 c -0.07579,0.031 -0.200792,0.0709 -0.373047,0.11914 -0.172254,0.0448 -0.337619,0.0684 -0.496093,0.0684 -0.272162,0 -0.475017,-0.0317 -0.609375,-0.0937 -0.130914,-0.0654 -0.234756,-0.16688 -0.310547,-0.30469 -0.08268,-0.14813 -0.130751,-0.30579 -0.144531,-0.47461 -0.01378,-0.17225 -0.01953,-0.41167 -0.01953,-0.71484 v -2.62891 h 2.003907 v -0.8164 h -2.003907 v -1.66016 z m -55.5761718,0.61523 h 1.203125 c 0.2756068,0 0.5154901,0.0212 0.71875,0.0625 0.20326,0.0379 0.3792052,0.10713 0.5273438,0.20704 0.1791444,0.11713 0.30506752,0.26134 0.38085938,0.43359 0.0792369,0.16881 0.11914062,0.3635 0.11914062,0.58398 0,0.28939 -0.0374894,0.52927 -0.11328125,0.71875 -0.0723468,0.18604 -0.18676807,0.3514 -0.34179687,0.4961 -0.16880917,0.155 -0.37212538,0.26171 -0.61328128,0.32031 -0.2411559,0.0551 -0.5238183,0.082 -0.8476562,0.082 h -1.0332032 z m 8.6542969,0.88477 c -0.8406006,0 -1.5183935,0.27737 -2.0351562,0.83203 -0.5133176,0.55466 -0.7695313,1.3041 -0.7695313,2.24805 0,0.95429 0.2672543,1.69073 0.8046875,2.21094 0.5374332,0.51676 1.2864072,0.77539 2.2441407,0.77539 0.3755142,0 0.7331554,-0.0476 1.0742187,-0.14063 0.3410634,-0.093 0.6746701,-0.20789 1.0019531,-0.3457 v -1.05859 h -0.050781 c -0.1688092,0.15158 -0.4538858,0.30637 -0.8535156,0.46484 -0.3961848,0.15503 -0.7908542,0.23242 -1.1835938,0.23242 -0.2962773,0 -0.5683602,-0.0423 -0.8164062,-0.125 -0.2446011,-0.0827 -0.4556213,-0.20573 -0.6347657,-0.37109 C 3.9721685,153.01673 3.8255476,152.80089 3.71875,152.53906 3.6119524,152.2738 3.5585938,151.96422 3.5585938,151.60938 H 7.8125 v -0.52735 c 0,-0.83715 -0.2129733,-1.48275 -0.6367188,-1.9375 -0.4203003,-0.45475 -1.020239,-0.68164 -1.7988281,-0.68164 z m 6.7812499,0 c -0.365179,0 -0.711318,0.0726 -1.035156,0.2207 -0.320393,0.1447 -0.608806,0.32593 -0.867188,0.54297 v -0.60351 H 9.2851562 v 7.90039 h 0.9707028 v -2.41797 c 0.251492,0.13779 0.497126,0.23922 0.738282,0.30469 0.2446,0.0655 0.516683,0.0977 0.816406,0.0977 0.344509,0 0.66995,-0.0692 0.976562,-0.20703 0.310058,-0.14125 0.579266,-0.33882 0.806641,-0.59375 0.244601,-0.26872 0.434001,-0.59657 0.568359,-0.98242 0.134359,-0.38929 0.201172,-0.81662 0.201172,-1.28516 0,-0.93362 -0.194689,-1.66384 -0.583984,-2.1875 -0.385849,-0.52709 -0.925187,-0.78906 -1.621094,-0.78906 z m 20.917969,0 c -0.840601,0 -1.520347,0.27737 -2.03711,0.83203 -0.513318,0.55466 -0.769531,1.3041 -0.769531,2.24805 0,0.95429 0.269208,1.69073 0.806641,2.21094 0.537433,0.51676 1.284454,0.77539 2.242187,0.77539 0.375515,0 0.735109,-0.0476 1.076172,-0.14063 0.341064,-0.093 0.674671,-0.20789 1.001953,-0.3457 v -1.05859 h -0.05273 c -0.168809,0.15158 -0.451932,0.30637 -0.851562,0.46484 -0.396185,0.15503 -0.790855,0.23242 -1.183594,0.23242 -0.296278,0 -0.56836,-0.0423 -0.816406,-0.125 -0.244602,-0.0827 -0.455622,-0.20573 -0.634766,-0.37109 -0.186035,-0.16882 -0.332656,-0.38466 -0.439453,-0.64649 -0.106798,-0.26526 -0.160156,-0.57484 -0.160157,-0.92968 h 4.251954 v -0.52735 c 0,-0.83715 -0.211021,-1.48275 -0.634766,-1.9375 -0.420301,-0.45475 -1.020239,-0.68164 -1.798828,-0.68164 z m 48.96289,0 c -0.341063,0 -0.674208,0.0697 -0.998046,0.21094 -0.323838,0.14124 -0.636286,0.33835 -0.939454,0.58984 v -0.64062 h -0.970703 v 5.77148 h 0.970703 v -4.31055 c 0.265273,-0.20326 0.542645,-0.36908 0.832032,-0.5 0.289387,-0.13091 0.56676,-0.19726 0.832031,-0.19726 0.258381,0 0.46894,0.037 0.630859,0.10937 0.161919,0.0689 0.284967,0.17562 0.371094,0.32032 0.08268,0.13091 0.140868,0.31261 0.171875,0.54687 0.03101,0.23082 0.04492,0.47887 0.04492,0.74414 v 3.28711 h 0.972656 v -3.74609 c 0,-0.70624 -0.164904,-1.24754 -0.492187,-1.62305 -0.327283,-0.37551 -0.802221,-0.5625 -1.425782,-0.5625 z m 30.660158,0 c -0.36518,0 -0.70936,0.0726 -1.0332,0.2207 -0.3204,0.1447 -0.61077,0.32593 -0.86914,0.54297 v -0.60351 h -0.97071 v 7.90039 h 0.97071 v -2.41797 c 0.25149,0.13779 0.49712,0.23922 0.73828,0.30469 0.2446,0.0655 0.51864,0.0977 0.81836,0.0977 0.34451,0 0.66994,-0.0692 0.97656,-0.20703 0.31005,-0.14125 0.57731,-0.33882 0.80469,-0.59375 0.2446,-0.26872 0.434,-0.59657 0.56835,-0.98242 0.13437,-0.38929 0.20313,-0.81662 0.20313,-1.28516 0,-0.93362 -0.19469,-1.66384 -0.58398,-2.1875 -0.38585,-0.52709 -0.92714,-0.78906 -1.62305,-0.78906 z m 6.11719,0 c -0.8406,0 -1.5184,0.27737 -2.03516,0.83203 -0.51332,0.55466 -0.76953,1.3041 -0.76953,2.24805 0,0.95429 0.26921,1.69073 0.80664,2.21094 0.53743,0.51676 1.28445,0.77539 2.24219,0.77539 0.37551,0 0.73315,-0.0476 1.07422,-0.14063 0.34106,-0.093 0.67466,-0.20789 1.00195,-0.3457 v -1.05859 h -0.0508 c -0.16881,0.15158 -0.45388,0.30637 -0.85352,0.46484 -0.39618,0.15503 -0.7889,0.23242 -1.18164,0.23242 -0.29627,0 -0.57031,-0.0423 -0.81836,-0.125 -0.2446,-0.0827 -0.45562,-0.20573 -0.63476,-0.37109 -0.18604,-0.16882 -0.33266,-0.38466 -0.43946,-0.64649 -0.10679,-0.26526 -0.16015,-0.57484 -0.16015,-0.92968 h 4.2539 v -0.52735 c 0,-0.83715 -0.21298,-1.48275 -0.63672,-1.9375 -0.4203,-0.45475 -1.02024,-0.68164 -1.79882,-0.68164 z m 15.77734,0 c -0.81648,0 -1.46495,0.27255 -1.94727,0.82031 -0.47886,0.54432 -0.71875,1.28801 -0.71875,2.22852 0,0.94051 0.23989,1.68224 0.71875,2.22656 0.48232,0.54433 1.13079,0.81641 1.94727,0.81641 0.8096,0 1.45519,-0.27208 1.9375,-0.81641 0.48231,-0.54432 0.72461,-1.28605 0.72461,-2.22656 0,-0.94051 -0.2423,-1.6842 -0.72461,-2.22852 -0.48231,-0.54776 -1.1279,-0.82031 -1.9375,-0.82031 z m 6.32617,0 c -0.31694,0 -0.63664,0.0673 -0.95703,0.20508 -0.32039,0.13436 -0.59247,0.32571 -0.81641,0.57031 -0.24115,0.26183 -0.43297,0.57186 -0.57421,0.9336 -0.13781,0.35828 -0.20508,0.7871 -0.20508,1.2832 0,0.90606 0.20044,1.60789 0.60351,2.10742 0.40652,0.49609 0.95551,0.74414 1.64453,0.74414 0.41341,0 0.75231,-0.0562 1.01758,-0.16992 0.26872,-0.11713 0.54897,-0.29308 0.8418,-0.52734 v 0.52734 c 0,0.23427 -0.0265,0.44528 -0.0781,0.63476 -0.0517,0.18948 -0.13723,0.35197 -0.25781,0.48633 -0.12058,0.14125 -0.28882,0.25085 -0.50586,0.33008 -0.21704,0.0792 -0.49154,0.11914 -0.82226,0.11914 -0.34451,0 -0.68869,-0.0456 -1.03321,-0.13867 -0.3445,-0.0896 -0.59543,-0.16652 -0.7539,-0.22852 h -0.0527 v 0.99219 c 0.2825,0.0793 0.56804,0.14031 0.85742,0.18164 0.29284,0.0448 0.59378,0.0664 0.9004,0.0664 0.92328,0 1.60636,-0.2293 2.05078,-0.6875 0.44442,-0.4582 0.66601,-1.17589 0.66601,-2.1543 v -5.11523 h -0.9082 l -0.0625,0.24804 c -0.25149,-0.13779 -0.49137,-0.23922 -0.71875,-0.30468 -0.22393,-0.0689 -0.50176,-0.10352 -0.83594,-0.10352 z m 6.69727,0 c -0.81649,0 -1.46691,0.27255 -1.94922,0.82031 -0.47887,0.54432 -0.71875,1.28801 -0.71875,2.22852 0,0.94051 0.23988,1.68224 0.71875,2.22656 0.48231,0.54433 1.13273,0.81641 1.94922,0.81641 0.80959,0 1.45518,-0.27208 1.9375,-0.81641 0.48231,-0.54432 0.72265,-1.28605 0.72265,-2.22656 0,-0.94051 -0.24034,-1.6842 -0.72265,-2.22852 -0.48232,-0.54776 -1.12791,-0.82031 -1.9375,-0.82031 z m -126.849612,0.0195 c -0.347953,0 -0.702258,0.0318 -1.060547,0.0937 -0.358288,0.062 -0.630832,0.11826 -0.820312,0.16992 v 0.98829 h 0.05078 c 0.334173,-0.12746 0.6572,-0.22555 0.970703,-0.29102 0.313503,-0.0689 0.598579,-0.10352 0.853516,-0.10352 0.21015,0 0.410591,0.0154 0.603515,0.043 0.192925,0.0276 0.358291,0.0809 0.496094,0.16016 0.144694,0.0827 0.25624,0.19515 0.332031,0.33984 0.07924,0.1447 0.119141,0.32834 0.119141,0.54883 v 0.14844 c -0.564994,0.0275 -1.095243,0.0699 -1.587891,0.125 -0.492646,0.0551 -0.914226,0.15942 -1.265625,0.31445 -0.347954,0.15503 -0.617161,0.36847 -0.80664,0.64063 -0.186035,0.26871 -0.277344,0.62302 -0.277344,1.06054 0,0.53399 0.179282,0.9719 0.541016,1.31641 0.361734,0.34451 0.804011,0.51758 1.324218,0.51758 0.282498,0 0.528132,-0.0269 0.738282,-0.082 0.21015,-0.0517 0.396674,-0.11804 0.558593,-0.19727 0.137804,-0.062 0.279135,-0.14469 0.423829,-0.24805 0.148138,-0.10682 0.265435,-0.18951 0.351562,-0.24804 v 0.61523 h 0.964844 v -3.91601 c 0,-0.37207 -0.05623,-0.68406 -0.169922,-0.93555 -0.113687,-0.25149 -0.279053,-0.45676 -0.496094,-0.61524 -0.220485,-0.1619 -0.481989,-0.27633 -0.785156,-0.34179 -0.299723,-0.0689 -0.652074,-0.10352 -1.058594,-0.10352 z m 53.970703,0 c -0.347953,0 -0.702257,0.0318 -1.060547,0.0937 -0.358288,0.062 -0.632786,0.11826 -0.822265,0.16992 v 0.98829 h 0.05273 c 0.334173,-0.12746 0.657201,-0.22555 0.970703,-0.29102 0.313503,-0.0689 0.59858,-0.10352 0.853516,-0.10352 0.21015,0 0.41059,0.0154 0.603516,0.043 0.192924,0.0276 0.35829,0.0809 0.496093,0.16016 0.144694,0.0827 0.256239,0.19515 0.332031,0.33984 0.07924,0.1447 0.119141,0.32834 0.119141,0.54883 v 0.14844 c -0.564994,0.0275 -1.095244,0.0699 -1.587891,0.125 -0.492647,0.0551 -0.914226,0.15942 -1.265624,0.31445 -0.347954,0.15503 -0.617161,0.36847 -0.806641,0.64063 -0.186034,0.26871 -0.277344,0.62302 -0.277344,1.06054 0,0.53399 0.179282,0.9719 0.541016,1.31641 0.361734,0.34451 0.804011,0.51758 1.324219,0.51758 0.282496,0 0.52813,-0.0269 0.738281,-0.082 0.21015,-0.0517 0.396675,-0.11804 0.558593,-0.19727 0.137804,-0.062 0.279135,-0.14469 0.423829,-0.24805 0.148138,-0.10682 0.265435,-0.18951 0.351562,-0.24804 v 0.61523 h 0.964844 v -3.91601 c 0,-0.37207 -0.05624,-0.68406 -0.169922,-0.93555 -0.113688,-0.25149 -0.279054,-0.45676 -0.496094,-0.61524 -0.220486,-0.1619 -0.481989,-0.27633 -0.785156,-0.34179 -0.299722,-0.0689 -0.652074,-0.10352 -1.058594,-0.10352 z m 19.652344,0 c -0.368624,0 -0.704184,0.0481 -1.003906,0.14453 -0.296277,0.093 -0.539497,0.2209 -0.732422,0.38282 -0.199815,0.16536 -0.351265,0.35234 -0.451172,0.5625 -0.09646,0.21014 -0.144531,0.43416 -0.144531,0.67187 0,0.37896 0.106255,0.70106 0.316406,0.96289 0.213595,0.25838 0.57365,0.45353 1.080078,0.58789 0.182589,0.0482 0.38303,0.0934 0.603516,0.13477 0.22393,0.0413 0.405165,0.0784 0.542968,0.10937 0.372069,0.0827 0.622993,0.1817 0.753907,0.29883 0.130913,0.11713 0.197265,0.29021 0.197265,0.51758 0,0.29628 -0.120172,0.51259 -0.361328,0.65039 -0.241156,0.13781 -0.576716,0.20703 -1.003906,0.20703 -0.344509,0 -0.704564,-0.0668 -1.080078,-0.20117 -0.375515,-0.13781 -0.714872,-0.32192 -1.021484,-0.55274 h -0.05273 v 1.08985 c 0.241156,0.12058 0.539687,0.23258 0.894531,0.33594 0.358289,0.0999 0.750544,0.14843 1.177735,0.14843 0.754473,0 1.349122,-0.16824 1.783203,-0.50586 0.437525,-0.33762 0.65625,-0.76978 0.65625,-1.29687 0,-0.4203 -0.122587,-0.75678 -0.367188,-1.01172 -0.244601,-0.25149 -0.591662,-0.42985 -1.042968,-0.5332 -0.148139,-0.0345 -0.334664,-0.072 -0.558594,-0.11328 -0.220486,-0.0413 -0.420466,-0.0837 -0.59961,-0.125 -0.323838,-0.0758 -0.558431,-0.17435 -0.703124,-0.29493 -0.148139,-0.12058 -0.222657,-0.2994 -0.222657,-0.53711 0,-0.26872 0.122587,-0.46916 0.367188,-0.60351 0.244601,-0.13781 0.545547,-0.20703 0.90039,-0.20703 0.341064,0 0.688125,0.0639 1.042969,0.1914 0.354843,0.12403 0.65625,0.2764 0.904297,0.45899 h 0.05273 v -1.03906 c -0.234266,-0.12058 -0.529922,-0.22201 -0.884765,-0.30469 -0.351399,-0.0861 -0.69846,-0.12891 -1.042969,-0.12891 z m 11.042965,0 c -0.34795,0 -0.70226,0.0318 -1.06054,0.0937 -0.35829,0.062 -0.63084,0.11826 -0.82032,0.16992 v 0.98829 h 0.0508 c 0.33417,-0.12746 0.65915,-0.22555 0.97265,-0.29102 0.3135,-0.0689 0.59663,-0.10352 0.85156,-0.10352 0.21016,0 0.41255,0.0154 0.60547,0.043 0.19292,0.0276 0.35829,0.0809 0.4961,0.16016 0.14469,0.0827 0.25428,0.19515 0.33008,0.33984 0.0792,0.1447 0.11914,0.32834 0.11914,0.54883 v 0.14844 c -0.565,0.0275 -1.0933,0.0699 -1.58594,0.125 -0.49265,0.0551 -0.91618,0.15942 -1.26758,0.31445 -0.34795,0.15503 -0.61521,0.36847 -0.80469,0.64063 -0.18603,0.26871 -0.27929,0.62302 -0.27929,1.06054 0,0.53399 0.18123,0.9719 0.54296,1.31641 0.36174,0.34451 0.80206,0.51758 1.32227,0.51758 0.2825,0 0.52813,-0.0269 0.73828,-0.082 0.21015,-0.0517 0.39668,-0.11804 0.55859,-0.19727 0.13781,-0.062 0.27914,-0.14469 0.42383,-0.24805 0.14814,-0.10682 0.26544,-0.18951 0.35157,-0.24804 v 0.61523 h 0.96679 v -3.91601 c 0,-0.37207 -0.0582,-0.68406 -0.17187,-0.93555 -0.11369,-0.25149 -0.27906,-0.45676 -0.4961,-0.61524 -0.22048,-0.1619 -0.48199,-0.27633 -0.78515,-0.34179 -0.29973,-0.0689 -0.65208,-0.10352 -1.0586,-0.10352 z m -77.855465,0.006 c -0.850935,0 -1.536433,0.26921 -2.056641,0.80664 -0.516762,0.53743 -0.77539,1.27675 -0.77539,2.2207 0,0.50644 0.06923,0.94918 0.207031,1.32813 0.137803,0.37896 0.332493,0.69336 0.583984,0.94141 0.248046,0.24804 0.544625,0.43456 0.892579,0.55859 0.347953,0.12057 0.731582,0.17969 1.148437,0.17969 0.327283,0 0.634441,-0.0428 0.923828,-0.12891 0.292832,-0.0861 0.601943,-0.2063 0.925781,-0.36133 v -1.07031 h -0.05078 c -0.07235,0.0586 -0.170899,0.13021 -0.294922,0.21289 -0.124023,0.0792 -0.257189,0.15422 -0.398437,0.22656 -0.161919,0.0827 -0.343615,0.14951 -0.546875,0.20118 -0.20326,0.0517 -0.40324,0.0781 -0.59961,0.0781 -0.564993,0 -1.004856,-0.18653 -1.318359,-0.55859 -0.310057,-0.37552 -0.464844,-0.91151 -0.464844,-1.60743 0,-0.71657 0.157662,-1.25832 0.47461,-1.62695 0.320392,-0.37206 0.75738,-0.55859 1.308593,-0.55859 0.299723,0 0.60642,0.0615 0.919922,0.18554 0.316948,0.12403 0.623645,0.30239 0.919922,0.53321 h 0.05078 v -1.08008 c -0.265272,-0.13435 -0.558513,-0.24878 -0.878906,-0.3418 -0.316947,-0.093 -0.639974,-0.13867 -0.970703,-0.13867 z m 72.781255,0 c -0.85094,0 -1.536438,0.26921 -2.056646,0.80664 -0.516762,0.53743 -0.77539,1.27675 -0.77539,2.2207 0,0.50644 0.06727,0.94918 0.205078,1.32813 0.137803,0.37896 0.332493,0.69336 0.583984,0.94141 0.248046,0.24804 0.546578,0.43456 0.894532,0.55859 0.347954,0.12057 0.731582,0.17969 1.148442,0.17969 0.32728,0 0.63444,-0.0428 0.92382,-0.12891 0.29283,-0.0861 0.60194,-0.2063 0.92578,-0.36133 v -1.07031 h -0.0527 c -0.0724,0.0586 -0.16895,0.13021 -0.29297,0.21289 -0.12402,0.0792 -0.25718,0.15422 -0.39844,0.22656 -0.16192,0.0827 -0.34556,0.14951 -0.54882,0.20118 -0.20326,0.0517 -0.40325,0.0781 -0.59961,0.0781 -0.564998,0 -1.002907,-0.18653 -1.31641,-0.55859 -0.310058,-0.37552 -0.464844,-0.91151 -0.464844,-1.60743 0,-0.71657 0.157662,-1.25832 0.47461,-1.62695 0.320392,-0.37206 0.755426,-0.55859 1.306644,-0.55859 0.29972,0 0.60641,0.0615 0.91992,0.18554 0.31694,0.12403 0.62365,0.30239 0.91992,0.53321 h 0.0527 v -1.08008 c -0.26527,-0.13435 -0.55851,-0.24878 -0.8789,-0.3418 -0.31695,-0.093 -0.63998,-0.13867 -0.9707,-0.13867 z m -60.167974,0.13477 1.519532,5.77148 h 0.894531 l 1.472656,-4.44922 1.482422,4.44922 h 0.900391 l 1.503906,-5.77148 h -0.978516 l -1.001953,4.46875 -1.476563,-4.46875 h -0.802734 l -1.441406,4.46875 -1.058594,-4.46875 z m 9.183594,0 v 5.77148 h 0.970703 v -5.77148 z m -44.0488281,0.64062 c 0.5167626,0 0.9008525,0.13892 1.1523437,0.41797 0.2549347,0.27905 0.3832721,0.67372 0.3867188,1.18359 H 3.5585938 c 0.041341,-0.45474 0.2148718,-0.83596 0.5214843,-1.14257 0.3100576,-0.30662 0.725886,-0.45899 1.2460938,-0.45899 z m 27.6972661,0 c 0.516762,0 0.900852,0.13892 1.152343,0.41797 0.254915,0.27905 0.385205,0.67372 0.388672,1.18359 h -3.306641 c 0.04134,-0.45474 0.214873,-0.83596 0.521485,-1.14257 0.310058,-0.30662 0.723933,-0.45899 1.244141,-0.45899 z m 85.742182,0 c 0.51677,0 0.90086,0.13892 1.15235,0.41797 0.25505,0.27905 0.38338,0.67372 0.38672,1.18359 h -3.30664 c 0.0413,-0.45474 0.21487,-0.83596 0.52148,-1.14257 0.31005,-0.30662 0.72589,-0.45899 1.24609,-0.45899 z m 15.82813,0.0352 c 0.52021,0 0.92787,0.18365 1.2207,0.54883 0.29284,0.36173 0.4375,0.91647 0.4375,1.66406 0,0.73035 -0.14708,1.28027 -0.44336,1.65234 -0.29283,0.36862 -0.69807,0.55274 -1.21484,0.55274 -0.52365,0 -0.93178,-0.18458 -1.22461,-0.55664 -0.29283,-0.37552 -0.43945,-0.92497 -0.43945,-1.64844 0,-0.74759 0.1442,-1.30233 0.43359,-1.66406 0.29283,-0.36518 0.70338,-0.54883 1.23047,-0.54883 z m 13.02344,0 c 0.5202,0 0.92591,0.18365 1.21875,0.54883 0.29283,0.36173 0.43945,0.91647 0.43945,1.66406 0,0.73035 -0.14903,1.28027 -0.44531,1.65234 -0.29284,0.36862 -0.69613,0.55274 -1.21289,0.55274 -0.52366,0 -0.93178,-0.18458 -1.22461,-0.55664 -0.29284,-0.37552 -0.43946,-0.92497 -0.43946,-1.64844 0,-0.74759 0.14421,-1.30233 0.4336,-1.66406 0.29283,-0.36518 0.70337,-0.54883 1.23047,-0.54883 z m -6.52735,0.0371 c 0.22049,0 0.44163,0.0245 0.66211,0.0762 0.22393,0.0482 0.46428,0.13091 0.72266,0.24805 v 3.14843 c -0.23771,0.1826 -0.49921,0.32922 -0.78516,0.43946 -0.28249,0.1068 -0.56515,0.16015 -0.84765,0.16015 -0.5271,0 -0.90348,-0.16778 -1.13086,-0.50195 -0.22738,-0.33417 -0.3418,-0.82498 -0.3418,-1.47266 0,-0.68212 0.15237,-1.20226 0.45898,-1.56054 0.30662,-0.35829 0.72774,-0.53711 1.26172,-0.53711 z m -52.931637,0.0156 c 0.244601,0 0.469076,0.0216 0.675781,0.0664 0.206706,0.0448 0.441299,0.12505 0.703125,0.24219 v 3.3125 c -0.2446,0.19292 -0.508518,0.35253 -0.791015,0.47656 -0.282497,0.12057 -0.560331,0.17969 -0.835938,0.17969 -0.516762,0 -0.892687,-0.17641 -1.126953,-0.53125 -0.234265,-0.35829 -0.351562,-0.88084 -0.351562,-1.56641 0,-0.69591 0.15191,-1.23237 0.455078,-1.61133 0.303167,-0.37896 0.727161,-0.56836 1.271484,-0.56836 z m -76.248047,0.0352 c 0.492648,0 0.857993,0.17306 1.095703,0.51758 0.237711,0.3445 0.355469,0.86464 0.355469,1.56054 0,0.71658 -0.151911,1.25787 -0.455078,1.62305 -0.303167,0.36518 -0.724746,0.54688 -1.265625,0.54688 -0.251491,0 -0.477919,-0.0216 -0.677734,-0.0664 -0.19637,-0.0448 -0.431425,-0.12989 -0.707032,-0.25391 v -3.27148 c 0.258382,-0.19637 0.52805,-0.35403 0.810547,-0.47461 0.282497,-0.12058 0.564698,-0.18164 0.84375,-0.18164 z m 100.541014,0 c 0.49265,0 0.85799,0.17306 1.09571,0.51758 0.2377,0.3445 0.35546,0.86464 0.35546,1.56054 0,0.71658 -0.15191,1.25787 -0.45507,1.62305 -0.30317,0.36518 -0.72475,0.54688 -1.26563,0.54688 -0.25149,0 -0.47596,-0.0216 -0.67578,-0.0664 -0.19637,-0.0448 -0.43338,-0.12989 -0.70898,-0.25391 v -3.27148 c 0.25837,-0.19637 0.53,-0.35403 0.8125,-0.47461 0.28249,-0.12058 0.56274,-0.18164 0.84179,-0.18164 z m -90.13867,1.98047 v 1.60547 c -0.241156,0.18603 -0.502659,0.34611 -0.785156,0.48046 -0.282497,0.13092 -0.594484,0.19727 -0.935547,0.19727 -0.409965,0 -0.716201,-0.0827 -0.916016,-0.24805 -0.199814,-0.16881 -0.298828,-0.41927 -0.298828,-0.75 0,-0.29283 0.08556,-0.52214 0.257813,-0.6875 0.172254,-0.16881 0.398682,-0.29186 0.677734,-0.37109 0.234266,-0.0654 0.551543,-0.11592 0.951172,-0.15039 0.403075,-0.0345 0.752551,-0.059 1.048828,-0.0762 z m 53.970703,0 v 1.60547 c -0.241156,0.18603 -0.502659,0.34611 -0.785156,0.48046 -0.282497,0.13092 -0.594484,0.19727 -0.935547,0.19727 -0.409965,0 -0.716201,-0.0827 -0.916016,-0.24805 -0.199815,-0.16881 -0.298828,-0.41927 -0.298828,-0.75 0,-0.29283 0.08556,-0.52214 0.257813,-0.6875 0.172254,-0.16881 0.398682,-0.29186 0.677734,-0.37109 0.234265,-0.0654 0.551542,-0.11592 0.951172,-0.15039 0.403075,-0.0345 0.752551,-0.059 1.048828,-0.0762 z m 30.695317,0 v 1.60547 c -0.24116,0.18603 -0.50266,0.34611 -0.78516,0.48046 -0.28249,0.13092 -0.59448,0.19727 -0.93555,0.19727 -0.40996,0 -0.71424,-0.0827 -0.91406,-0.24805 -0.19981,-0.16881 -0.30078,-0.41927 -0.30078,-0.75 0,-0.29283 0.0856,-0.52214 0.25781,-0.6875 0.17225,-0.16881 0.39868,-0.29186 0.67774,-0.37109 0.23426,-0.0654 0.55154,-0.11592 0.95117,-0.15039 0.40308,-0.0345 0.75255,-0.059 1.04883,-0.0762 z" />
    </g>
  </g>
</svg>
