<?xml version="1.0" encoding="UTF-8" standalone="no"?>
<svg
   xmlns:dc="http://purl.org/dc/elements/1.1/"
   xmlns:cc="http://creativecommons.org/ns#"
   xmlns:rdf="http://www.w3.org/1999/02/22-rdf-syntax-ns#"
   xmlns:svg="http://www.w3.org/2000/svg"
   xmlns="http://www.w3.org/2000/svg"
   xmlns:sodipodi="http://sodipodi.sourceforge.net/DTD/sodipodi-0.dtd"
   xmlns:inkscape="http://www.inkscape.org/namespaces/inkscape"
   width="210mm"
   height="297mm"
   viewBox="0 0 210 297"
   version="1.1"
   id="svg209"
   inkscape:version="1.0.2 (e86c8708, 2021-01-15)"
   sodipodi:docname="right-logo.svg">
  <defs
     id="defs203" />
  <sodipodi:namedview
     id="base"
     pagecolor="#ffffff"
     bordercolor="#666666"
     borderopacity="1.0"
     inkscape:pageopacity="0.0"
     inkscape:pageshadow="2"
     inkscape:zoom="0.35"
     inkscape:cx="491.76171"
     inkscape:cy="560"
     inkscape:document-units="mm"
     inkscape:current-layer="layer1"
     inkscape:document-rotation="0"
     showgrid="false"
     inkscape:window-width="1252"
     inkscape:window-height="943"
     inkscape:window-x="228"
     inkscape:window-y="73"
     inkscape:window-maximized="0" />
  <metadata
     id="metadata206">
    <rdf:RDF>
      <cc:Work
         rdf:about="">
        <dc:format>image/svg+xml</dc:format>
        <dc:type
           rdf:resource="http://purl.org/dc/dcmitype/StillImage" />
        <dc:title></dc:title>
      </cc:Work>
    </rdf:RDF>
  </metadata>
  <g
     inkscape:label="Layer 1"
     inkscape:groupmode="layer"
     id="layer1">
    <g
       aria-label="Replace with Project Logo"
       transform="rotate(-13.060274)"
       id="text213"
       style="font-style:normal;font-weight:normal;font-size:10.5833px;line-height:1.25;font-family:sans-serif;fill:#000000;fill-opacity:1;stroke:none;stroke-width:0.264583">
      <path
         id="path257"
         style="stroke-width:0.264583"
         d="m 143.00475,144.8444 c -0.27711,6.6285 -9.13356,0.32446 -3.76074,-2.84349 1.9039,-0.86694 3.98976,0.81612 3.76074,2.84349 z m -1.00252,0 c -0.87586,-6.17645 -6.35429,2.75389 -0.96764,2.06835 0.77747,-0.34814 0.98444,-1.31053 0.96764,-2.06835 z m -5.82908,2.22725 c 1.33916,4.9885 -8.29121,1.31849 -2.63547,1.96884 2.2347,0.0422 2.25212,-3.46938 -0.19638,-1.40042 -5.76514,-1.4812 0.70482,-8.36662 2.83185,-5.13176 0,1.52111 0,3.04223 0,4.56334 z m -0.97151,-0.93018 c 1.56011,-3.60395 -3.71238,-4.95033 -3.02047,-0.52062 0.22514,1.51778 2.15561,1.27671 3.02047,0.52062 z m -5.2193,-1.29707 c -0.27711,6.6285 -9.13357,0.32446 -3.76074,-2.84349 1.90389,-0.86693 3.98976,0.81611 3.76074,2.84349 z m -1.00252,0 c -0.87586,-6.17645 -6.35431,2.75389 -0.96764,2.06835 0.77746,-0.34815 0.98444,-1.31052 0.96764,-2.06835 z m -4.86273,2.88354 c -1.52368,-0.19106 -3.80772,0.37824 -4.86791,-0.27632 0,-2.47276 0,-4.94552 0,-7.41828 2.01564,-0.293 0.60282,2.84247 1.02319,4.14474 -0.44317,2.15223 0.22872,3.18941 2.48684,2.64035 0.84732,0.0425 1.67333,-0.32635 1.35788,0.90951 z m -9.84433,-0.0517 c -3.77706,1.44337 -2.57693,-3.43164 -3.25288,-4.90409 -0.3284,-0.0948 -0.0506,-2.74214 1.24784,-2.47529 -1.36326,2.59265 2.96914,0.92574 1.72872,2.47529 -2.64778,-0.87583 -1.61153,2.29469 -1.56333,3.81888 0.59757,1.19696 2.334,-0.773 1.83965,1.08521 z m -4.2478,-0.31006 c -6.36875,3.47982 -5.4371,-8.94058 0,-4.78795 0.33704,1.80679 -4.43317,-1.5231 -3.67421,2.27132 -0.56758,4.49924 4.35641,-0.0823 3.67421,2.51663 z m -5.74123,-2.42362 c -1.74427,0.0318 -6.363155,-0.62224 -3.01789,1.9482 1.46834,0.0589 4.62149,-0.90876 1.90171,0.83199 -5.89286,2.10601 -4.732719,-8.9145 0.48059,-5.24514 0.6413,0.67494 0.64885,1.60633 0.63559,2.46495 z m -0.94567,-0.74413 c -1.58764,-3.87369 -5.09082,1.34576 -0.26781,0 z m -5.725733,-3.2091 c -2.924317,0.34491 0.344,-2.68342 0,0 z m -0.06201,6.87811 c 0.04285,3.79281 -5.757269,0.80869 -1.152377,0.7649 0.360534,-1.91682 0.102858,-3.90955 0.180864,-5.86009 -3.294671,0.21268 1.275099,-2.19183 0.971514,0.0125 0,1.69424 -10e-7,3.38848 -10e-7,5.08272 z m -3.245272,-3.02306 c -0.277107,6.6285 -9.133563,0.32446 -3.76074,-2.84349 1.903899,-0.86694 3.989765,0.81611 3.76074,2.84349 z m -1.002519,0 c -0.875858,-6.17645 -6.354303,2.75389 -0.967638,2.06835 0.777463,-0.34815 0.984437,-1.31052 0.967638,-2.06835 z m -4.842066,-1.82934 c -3.270351,-0.90519 -2.643689,2.47103 -2.630326,4.48335 -1.67436,1.05412 -0.734477,-2.49085 -0.971513,-3.63891 -0.188347,-3.50115 1.152874,-0.21594 3.260772,-1.88832 0.659014,-0.1671 0.213745,0.72852 0.341067,1.04388 z m -4.878244,-0.65629 c -0.02614,3.64449 -5.484141,1.02274 -4.010079,4.98797 -1.431374,1.54725 -0.988173,-2.09102 -1.02319,-3.21091 0.410861,-1.32506 -1.007312,-4.47915 1.105264,-4.10249 1.635763,-0.10914 4.018541,0.12984 3.928005,2.32543 z m -1.064531,0.0258 c -1.345223,-3.1254 -3.979613,-1.07897 -2.945548,1.56675 1.116119,0.12535 3.008827,0.0952 2.945548,-1.56675 z m -9.637623,5.34337 c -2.335204,0.18455 0.167462,-3.88549 -1.560624,-4.89891 -3.308739,-0.69355 -2.075486,2.96739 -2.294427,4.89891 -1.954923,0.24951 -0.545261,-2.86557 -0.971514,-4.14474 0.425365,-1.19717 -0.986415,-4.23148 0.971514,-3.89609 -0.269518,2.75752 -0.0489,3.07342 2.762097,2.24921 1.831882,1.23395 0.833609,3.90413 1.092954,5.79162 z m -6.004782,-0.0517 c -3.777057,1.44337 -2.576919,-3.43165 -3.252869,-4.90409 -0.328403,-0.0948 -0.0506,-2.74214 1.24783,-2.47529 -1.363257,2.59265 2.969141,0.92574 1.728723,2.47529 -2.647795,-0.87583 -1.611514,2.29469 -1.56336,3.81888 0.597575,1.19695 2.333948,-0.77299 1.839676,1.08521 z m -4.867906,-6.68691 c -2.924317,0.34491 0.344,-2.68342 0,0 z m -0.06201,6.73859 c -1.954923,0.24951 -0.545261,-2.86557 -0.971514,-4.14474 -0.299701,-2.89919 1.702485,-1.17352 0.971514,0.85934 0,1.09514 0,2.19027 0,3.2854 z m -2.382277,-5.77224 c -0.50126,1.92408 -1.002519,3.84816 -1.503779,5.77224 -1.809041,0.17723 -1.381766,-2.74827 -2.209848,-3.93205 -0.550448,-0.64622 -1.096527,2.88395 -1.645202,3.93205 -1.815443,0.17625 -1.197971,-2.80363 -1.948984,-4.00823 -1.237912,-2.62249 1.2756,-1.85069 1.05832,0.38694 0.347725,2.87598 0.844602,1.99257 1.397811,-0.31071 0.265458,-2.79385 2.040003,-1.65945 2.175215,0.52089 0.587195,2.90642 0.964483,1.56259 1.30196,-0.58732 0.3234,-0.88035 -0.01122,-2.20642 1.374507,-1.77381 z m -12.453981,2.98688 c -1.744263,0.0318 -6.36315,-0.62224 -3.017894,1.9482 1.468346,0.0589 4.621462,-0.90876 1.90169,0.83199 -5.892864,2.10602 -4.732726,-8.91451 0.480589,-5.24514 0.641313,0.67494 0.648819,1.60633 0.635615,2.46495 z m -0.945675,-0.74413 c -1.58772,-3.87369 -5.090763,1.34577 -0.267805,0 z m -5.13662,3.16775 c -6.368757,3.47982 -5.437108,-8.94058 0,-4.78795 0.337048,1.80678 -4.433151,-1.52309 -3.674186,2.27132 -0.56759,4.49924 4.356398,-0.0823 3.674186,2.51663 z m -6.149476,0.36174 c -1.262617,-0.80267 -5.819175,1.34404 -4.625026,-2.73366 1.130199,-1.17149 5.90222,-1.1592 2.108392,-2.32022 -5.79255,0.0906 4.771246,-2.32971 2.516632,2.79479 0,0.75303 10e-7,1.50606 2e-6,2.25909 z m -0.966346,-1.4211 c 0.747557,-4.28416 -6.08426,1.39012 -0.785479,0.48058 l 0.785479,-0.48059 z m -5.451846,1.4211 c -1.954923,0.24951 -0.545261,-2.86557 -0.971514,-4.14474 0.425365,-1.19717 -0.986415,-4.23148 0.971514,-3.89609 0,2.68028 0,5.36055 0,8.04083 z m -2.495963,-2.95589 c 0.485759,4.3865 -5.459493,1.0924 -4.108263,5.08493 -1.954923,0.24951 -0.545261,-2.86557 -0.971514,-4.14474 0.165897,-1.11893 -0.598844,-4.69103 0.971514,-3.48024 1.3723,-0.8204 4.409209,-0.56141 4.108263,2.54005 z m -1.00252,0.0258 c -0.524703,-4.99531 -5.26848,0.48677 -2.397778,2.10323 1.404839,0.43793 2.565242,-0.68463 2.397778,-2.10323 z m -5.550031,0.14473 c -1.744263,0.0318 -6.363151,-0.62224 -3.017894,1.9482 1.468346,0.0589 4.621462,-0.90876 1.90169,0.83199 -5.892865,2.10601 -4.732725,-8.91451 0.48059,-5.24514 0.641312,0.67494 0.64882,1.60633 0.635614,2.46495 z m -0.945676,-0.74413 c -1.58772,-3.87369 -5.090763,1.34577 -0.267805,0 z m -4.800726,3.52949 c -2.130642,0.56553 -2.59532,-2.44743 -4.1778738,-3.0592 -2.4634481,-0.87101 -0.096416,3.08847 -1.7180837,3.05924 -1.0714363,-0.65121 -0.1764786,-3.26881 -0.4705582,-4.69737 -0.1676092,-1.88499 -0.2892678,-3.72402 2.1549003,-2.99723 4.3807964,-0.45222 1.9918754,3.88085 1.8583304,4.95888 0.784428,0.91189 1.568857,1.82379 2.353285,2.73568 z m -2.392611,-5.52936 c -1.235667,-2.70366 -4.0206315,-1.10088 -2.9507146,1.47643 0.8477869,0.39701 3.1807986,0.18301 2.9507146,-1.47643 z" />
    </g>
  </g>
</svg>
